<?xml version="1.0" encoding="UTF-8" standalone="no"?>
<!DOCTYPE svg PUBLIC "-//W3C//DTD SVG 1.1//EN"
 "http://www.w3.org/Graphics/SVG/1.1/DTD/svg11.dtd">
<!-- Generated by graphviz version 2.43.0 (0)
 -->
<!-- Title: structs Pages: 1 -->
<svg width="279pt" height="190pt"
 viewBox="0.00 0.00 279.00 189.50" xmlns="http://www.w3.org/2000/svg" xmlns:xlink="http://www.w3.org/1999/xlink">
<g id="graph0" class="graph" transform="scale(1 1) rotate(0) translate(4 185.5)">
<title>structs</title>
<polygon fill="white" stroke="transparent" points="-4,4 -4,-185.5 275,-185.5 275,4 -4,4"/>
<!-- fixtures -->
<g id="node1" class="node">
<title>fixtures</title>
<polygon fill="none" stroke="black" points="8.5,-151 8.5,-172 141.5,-172 141.5,-151 8.5,-151"/>
<text text-anchor="start" x="44.5" y="-158.8" font-family="Times,serif" font-weight="bold" font-size="14.00">fixtures</text>
<polygon fill="none" stroke="black" points="8.5,-130 8.5,-151 32.5,-151 32.5,-130 8.5,-130"/>
<text text-anchor="start" x="11.5" y="-136.8" font-family="Times,serif" font-size="14.00">🔑</text>
<polygon fill="none" stroke="black" points="32.5,-130 32.5,-151 141.5,-151 141.5,-130 32.5,-130"/>
<text text-anchor="start" x="80" y="-136.8" font-family="Times,serif" font-size="14.00">id</text>
<polygon fill="none" stroke="black" points="8.5,-109 8.5,-130 32.5,-130 32.5,-109 8.5,-109"/>
<text text-anchor="start" x="18" y="-115.8" font-family="Times,serif" font-size="14.00"> </text>
<polygon fill="none" stroke="black" points="32.5,-109 32.5,-130 141.5,-130 141.5,-109 32.5,-109"/>
<text text-anchor="start" x="53" y="-115.8" font-family="Times,serif" font-size="14.00">league_id</text>
<polygon fill="none" stroke="black" points="8.5,-88 8.5,-109 32.5,-109 32.5,-88 8.5,-88"/>
<text text-anchor="start" x="18" y="-94.8" font-family="Times,serif" font-size="14.00"> </text>
<polygon fill="none" stroke="black" points="32.5,-88 32.5,-109 141.5,-109 141.5,-88 32.5,-88"/>
<text text-anchor="start" x="45.5" y="-94.8" font-family="Times,serif" font-size="14.00">match_date</text>
<polygon fill="none" stroke="black" points="8.5,-67 8.5,-88 32.5,-88 32.5,-67 8.5,-67"/>
<text text-anchor="start" x="18" y="-73.8" font-family="Times,serif" font-size="14.00"> </text>
<polygon fill="none" stroke="black" points="32.5,-67 32.5,-88 141.5,-88 141.5,-67 32.5,-67"/>
<text text-anchor="start" x="35.5" y="-73.8" font-family="Times,serif" font-size="14.00">home_team_id</text>
<polygon fill="none" stroke="black" points="8.5,-46 8.5,-67 32.5,-67 32.5,-46 8.5,-46"/>
<text text-anchor="start" x="18" y="-52.8" font-family="Times,serif" font-size="14.00"> </text>
<polygon fill="none" stroke="black" points="32.5,-46 32.5,-67 141.5,-67 141.5,-46 32.5,-46"/>
<text text-anchor="start" x="37" y="-52.8" font-family="Times,serif" font-size="14.00">away_team_id</text>
<polygon fill="none" stroke="black" points="8.5,-25 8.5,-46 32.5,-46 32.5,-25 8.5,-25"/>
<text text-anchor="start" x="18" y="-31.8" font-family="Times,serif" font-size="14.00"> </text>
<polygon fill="none" stroke="black" points="32.5,-25 32.5,-46 141.5,-46 141.5,-25 32.5,-25"/>
<text text-anchor="start" x="44.5" y="-31.8" font-family="Times,serif" font-size="14.00">home_score</text>
<polygon fill="none" stroke="black" points="8.5,-4 8.5,-25 32.5,-25 32.5,-4 8.5,-4"/>
<text text-anchor="start" x="18" y="-10.8" font-family="Times,serif" font-size="14.00"> </text>
<polygon fill="none" stroke="black" points="32.5,-4 32.5,-25 141.5,-25 141.5,-4 32.5,-4"/>
<text text-anchor="start" x="46" y="-10.8" font-family="Times,serif" font-size="14.00">away_score</text>
</g>
<!-- leagues -->
<g id="node2" class="node">
<title>leagues</title>
<polygon fill="none" stroke="black" points="193,-156 193,-177 263,-177 263,-156 193,-156"/>
<text text-anchor="start" x="197.5" y="-163.8" font-family="Times,serif" font-weight="bold" font-size="14.00">leagues</text>
<polygon fill="none" stroke="black" points="193,-135 193,-156 217,-156 217,-135 193,-135"/>
<text text-anchor="start" x="196" y="-141.8" font-family="Times,serif" font-size="14.00">🔑</text>
<polygon fill="none" stroke="black" points="217,-135 217,-156 263,-156 263,-135 217,-135"/>
<text text-anchor="start" x="233" y="-141.8" font-family="Times,serif" font-size="14.00">id</text>
<polygon fill="none" stroke="black" points="193,-114 193,-135 217,-135 217,-114 193,-114"/>
<text text-anchor="start" x="202.5" y="-120.8" font-family="Times,serif" font-size="14.00"> </text>
<polygon fill="none" stroke="black" points="217,-114 217,-135 263,-135 263,-114 217,-114"/>
<text text-anchor="start" x="220" y="-120.8" font-family="Times,serif" font-size="14.00">name</text>
</g>
<!-- fixtures&#45;&gt;leagues -->
<g id="edge3" class="edge">
<title>fixtures:e&#45;&gt;leagues:w</title>
<path fill="none" stroke="black" d="M142.5,-120C163.3,-120 166.69,-137.8 182.05,-143.36"/>
<polygon fill="black" stroke="black" points="181.56,-146.83 192,-145 182.7,-139.92 181.56,-146.83"/>
</g>
<!-- teams -->
<g id="node3" class="node">
<title>teams</title>
<polygon fill="none" stroke="black" points="193,-67 193,-88 263,-88 263,-67 193,-67"/>
<text text-anchor="start" x="203.5" y="-74.8" font-family="Times,serif" font-weight="bold" font-size="14.00">teams</text>
<polygon fill="none" stroke="black" points="193,-46 193,-67 217,-67 217,-46 193,-46"/>
<text text-anchor="start" x="196" y="-52.8" font-family="Times,serif" font-size="14.00">🔑</text>
<polygon fill="none" stroke="black" points="217,-46 217,-67 263,-67 263,-46 217,-46"/>
<text text-anchor="start" x="233" y="-52.8" font-family="Times,serif" font-size="14.00">id</text>
<polygon fill="none" stroke="black" points="193,-25 193,-46 217,-46 217,-25 193,-25"/>
<text text-anchor="start" x="202.5" y="-31.8" font-family="Times,serif" font-size="14.00"> </text>
<polygon fill="none" stroke="black" points="217,-25 217,-46 263,-46 263,-25 217,-25"/>
<text text-anchor="start" x="220" y="-31.8" font-family="Times,serif" font-size="14.00">name</text>
</g>
<!-- fixtures&#45;&gt;teams -->
<g id="edge1" class="edge">
<title>fixtures:e&#45;&gt;teams:w</title>
<path fill="none" stroke="black" d="M142.5,-56C160.72,-56 167.62,-56 181.95,-56"/>
<polygon fill="black" stroke="black" points="182,-59.5 192,-56 182,-52.5 182,-59.5"/>
</g>
<!-- fixtures&#45;&gt;teams -->
<g id="edge2" class="edge">
<title>fixtures:e&#45;&gt;teams:w</title>
<path fill="none" stroke="black" d="M142.5,-77C162.48,-77 166.95,-62.33 181.83,-57.51"/>
<polygon fill="black" stroke="black" points="182.62,-60.93 192,-56 181.59,-54.01 182.62,-60.93"/>
</g>
</g>
</svg>
